<svg xmlns="http://www.w3.org/2000/svg" xmlns:xlink="http://www.w3.org/1999/xlink" width="100.0" height="100.0" viewBox="113.30567631225868 169.83882134753304 52.514306253895526 34.603119322554164" preserveAspectRatio="xMinYMin meet"><g transform="matrix(1,0,0,-1,0,374.28076201762025)"><path fill-rule="evenodd" fill="#66cc99" stroke="#555555" stroke-width="1.0502861250779105" opacity="0.6" d="M 157.0,202.487861472696 L 156.0,202.49696636438736 L 155.0507359113575,202.0 L 155.0,201.97878006954508 L 154.0,201.26382825153945 L 153.6948271212553,201.0 L 153.0,200.52476462614618 L 152.2535102176999,200.0 L 152.0,199.85128953187066 L 151.0,199.320294361275 L 150.19142222765615,199.0 L 150.0,198.93288188790527 L 149.0,198.7036697072889 L 148.0,198.6064991251611 L 147.0,198.6184655172146 L 146.0,198.71189907405358 L 145.0,198.85773304948148 L 144.16517980283157,199.0 L 144.0,199.0293246271917 L 143.0,199.2084399348437 L 142.0,199.35681127895128 L 141.0,199.4490416969311 L 140.0,199.4641140594109 L 139.0,199.38797071530018 L 138.0,199.21702065562167 L 137.14749697036672,199.0 L 137.0,198.96559179227899 L 136.0,198.68393520470124 L 135.0,198.38498333107285 L 134.0,198.05345505788557 L 133.8528566943343,198.0 L 133.0,197.70138490011092 L 132.0,197.3329862713863 L 131.07177923063875,197.0 L 131.0,196.97316989409242 L 130.0,196.647688959201 L 129.0,196.39299405667558 L 128.0,196.24674063169311 L 127.0,196.24249248610664 L 126.0,196.40089311866166 L 125.0,196.718116288023 L 124.33887419873182,197.0 L 124.0,197.1272616659585 L 123.0,197.5052896118002 L 122.0,197.81488954070667 L 121.0,197.98393018853844 L 120.0,197.97215210465822 L 119.0,197.7966713686601 L 118.0,197.51760185455086 L 117.0,197.0975718085354 L 116.84059234208404,197.0 L 116.0,196.2492992446767 L 115.80420186904894,196.0 L 115.37411174273862,195.0 L 115.25065061795851,194.0 L 115.34538511797396,193.0 L 115.58158913917084,192.0 L 115.89836981223247,191.0 L 116.0,190.72165641824344 L 116.32386167252082,190.0 L 116.78486158465091,189.0 L 117.0,188.54241188520672 L 117.31712993512473,188.0 L 117.92738461015065,187.0 L 118.0,186.90130475166745 L 118.76990088654541,186.0 L 119.0,185.7922377514297 L 119.92480561002043,185.0 L 120.0,184.9485548747342 L 121.0,184.36508482415786 L 121.77271269176188,184.0 L 122.0,183.9065038618464 L 123.0,183.58805577892747 L 124.0,183.29550077122965 L 124.8862882162714,183.0 L 125.0,182.9623165704441 L 126.0,182.52636320683874 L 126.82232958251298,182.0 L 127.0,181.87310591842856 L 127.91174437489104,181.0 L 128.0,180.89878076543607 L 128.65208401587827,180.0 L 129.0,179.41240684296105 L 129.22577725768377,179.0 L 129.70475812097334,178.0 L 130.0,177.34061662756685 L 130.16111389749537,177.0 L 130.66919649503893,176.0 L 131.0,175.45382400864966 L 131.32676604019068,175.0 L 132.0,174.26514284012669 L 132.3116172083698,174.0 L 133.0,173.52985772251154 L 134.0,173.0229727036417 L 134.06091809505068,173.0 L 135.0,172.6938588369795 L 136.0,172.43260005960997 L 137.0,172.18545604397008 L 137.84574996203426,172.0 L 138.0,171.969352890374 L 139.0,171.8305727840713 L 140.0,171.7837956532329 L 141.0,171.85626933161203 L 141.6891256588426,172.0 L 142.0,172.07478054903982 L 143.0,172.48118339875674 L 143.90762660398465,173.0 L 144.0,173.06719648400423 L 145.0,173.98260260180385 L 145.0165887334141,174.0 L 145.67690946103633,175.0 L 146.0,175.84247014466524 L 146.05667470709562,176.0 L 146.23767099820893,177.0 L 146.30714307871946,178.0 L 146.3442963699538,179.0 L 146.4178315182602,180.0 L 146.5838302275169,181.0 L 146.88614617087728,182.0 L 147.0,182.2380251857707 L 147.3943221459217,183.0 L 148.0,183.82515787294412 L 148.15012966241426,184.0 L 149.0,184.75706849405321 L 149.34589293850328,185.0 L 150.0,185.3841088927314 L 151.0,185.81222663905993 L 151.62967817755697,186.0 L 152.0,186.10184698028246 L 153.0,186.3076091480072 L 154.0,186.50213602048368 L 155.0,186.6799711268403 L 156.0,186.84752585495715 L 156.80367219456267,187.0 L 157.0,187.03778015435105 L 158.0,187.29688969460187 L 159.0,187.6849657817828 L 159.5528544467681,188.0 L 160.0,188.2690576269625 L 160.89209162902503,189.0 L 161.0,189.09565812771055 L 161.81595441935954,190.0 L 162.0,190.22507475346993 L 162.54307260366517,191.0 L 163.0,191.74541074162912 L 163.1413632377309,192.0 L 163.57070446478852,193.0 L 163.83576825632207,194.0 L 163.87500826045436,195.0 L 163.64223442092054,196.0 L 163.13607067271388,197.0 L 163.0,197.18885837953079 L 162.33777557353108,198.0 L 162.0,198.36357141652724 L 161.33742447974223,199.0 L 161.0,199.3317057006583 L 160.2356034769387,200.0 L 160.0,200.2372975104293 L 159.11010224947037,201.0 L 159.0,201.11921335667074 L 158.0,201.93075434517587 L 157.846617295998,202.0 L 157.0,202.487861472696 z" /></g></svg>